<mxfile host="Electron" modified="2024-05-24T01:21:54.584Z" agent="Mozilla/5.0 (Windows NT 10.0; Win64; x64) AppleWebKit/537.36 (KHTML, like Gecko) draw.io/22.0.2 Chrome/114.0.5735.289 Electron/25.8.4 Safari/537.36" etag="hCTdblS07dXHDwQ9-LWL" version="22.0.2" type="device">
  <diagram name="第 1 页" id="Fu4l8ghwa1C_h7Qnxff6">
    <mxGraphModel dx="365" dy="815" grid="1" gridSize="10" guides="1" tooltips="1" connect="1" arrows="1" fold="1" page="1" pageScale="1" pageWidth="827" pageHeight="1169" math="0" shadow="0">
      <root>
        <mxCell id="0" />
        <mxCell id="1" parent="0" />
        <mxCell id="XzW9RZ9uWTQpwF6JlTbW-7" style="edgeStyle=orthogonalEdgeStyle;rounded=0;orthogonalLoop=1;jettySize=auto;html=1;exitX=0.5;exitY=1;exitDx=0;exitDy=0;entryX=0.5;entryY=0;entryDx=0;entryDy=0;" edge="1" parent="1" source="XzW9RZ9uWTQpwF6JlTbW-1" target="XzW9RZ9uWTQpwF6JlTbW-2">
          <mxGeometry relative="1" as="geometry" />
        </mxCell>
        <mxCell id="XzW9RZ9uWTQpwF6JlTbW-1" value="算法开始" style="rounded=1;whiteSpace=wrap;html=1;fillColor=#ffe6cc;strokeColor=#d79b00;" vertex="1" parent="1">
          <mxGeometry x="80" y="80" width="80" height="40" as="geometry" />
        </mxCell>
        <mxCell id="XzW9RZ9uWTQpwF6JlTbW-8" style="edgeStyle=orthogonalEdgeStyle;rounded=0;orthogonalLoop=1;jettySize=auto;html=1;exitX=0.5;exitY=1;exitDx=0;exitDy=0;entryX=0.5;entryY=0;entryDx=0;entryDy=0;" edge="1" parent="1" source="XzW9RZ9uWTQpwF6JlTbW-2" target="XzW9RZ9uWTQpwF6JlTbW-3">
          <mxGeometry relative="1" as="geometry" />
        </mxCell>
        <mxCell id="XzW9RZ9uWTQpwF6JlTbW-9" value="是" style="edgeLabel;html=1;align=center;verticalAlign=middle;resizable=0;points=[];" vertex="1" connectable="0" parent="XzW9RZ9uWTQpwF6JlTbW-8">
          <mxGeometry x="-0.4667" y="2" relative="1" as="geometry">
            <mxPoint x="-12" as="offset" />
          </mxGeometry>
        </mxCell>
        <mxCell id="XzW9RZ9uWTQpwF6JlTbW-14" style="edgeStyle=orthogonalEdgeStyle;rounded=0;orthogonalLoop=1;jettySize=auto;html=1;exitX=1;exitY=0.5;exitDx=0;exitDy=0;entryX=0.5;entryY=0;entryDx=0;entryDy=0;" edge="1" parent="1" source="XzW9RZ9uWTQpwF6JlTbW-2" target="XzW9RZ9uWTQpwF6JlTbW-13">
          <mxGeometry relative="1" as="geometry" />
        </mxCell>
        <mxCell id="XzW9RZ9uWTQpwF6JlTbW-2" value="检查word1和word2&lt;br&gt;是否在图中" style="rhombus;whiteSpace=wrap;html=1;fillColor=#e1d5e7;strokeColor=#9673a6;" vertex="1" parent="1">
          <mxGeometry x="50" y="150" width="140" height="80" as="geometry" />
        </mxCell>
        <mxCell id="XzW9RZ9uWTQpwF6JlTbW-10" style="edgeStyle=orthogonalEdgeStyle;rounded=0;orthogonalLoop=1;jettySize=auto;html=1;exitX=0.5;exitY=1;exitDx=0;exitDy=0;entryX=0.5;entryY=0;entryDx=0;entryDy=0;" edge="1" parent="1" source="XzW9RZ9uWTQpwF6JlTbW-3" target="XzW9RZ9uWTQpwF6JlTbW-4">
          <mxGeometry relative="1" as="geometry" />
        </mxCell>
        <mxCell id="XzW9RZ9uWTQpwF6JlTbW-3" value="初始化空集合，&lt;br&gt;遍历word1的邻居，&lt;br&gt;检查每个邻居是否有边到word2，&lt;br&gt;将其添加到集合" style="rounded=0;whiteSpace=wrap;html=1;fillColor=#dae8fc;strokeColor=#6c8ebf;" vertex="1" parent="1">
          <mxGeometry x="60" y="260" width="120" height="70" as="geometry" />
        </mxCell>
        <mxCell id="XzW9RZ9uWTQpwF6JlTbW-11" style="edgeStyle=orthogonalEdgeStyle;rounded=0;orthogonalLoop=1;jettySize=auto;html=1;exitX=0.5;exitY=1;exitDx=0;exitDy=0;entryX=0.5;entryY=0;entryDx=0;entryDy=0;" edge="1" parent="1" source="XzW9RZ9uWTQpwF6JlTbW-4" target="XzW9RZ9uWTQpwF6JlTbW-5">
          <mxGeometry relative="1" as="geometry" />
        </mxCell>
        <mxCell id="XzW9RZ9uWTQpwF6JlTbW-4" value="对于任意输入单词，&lt;br&gt;调用桥接词查询函数" style="rounded=0;whiteSpace=wrap;html=1;fillColor=#dae8fc;strokeColor=#6c8ebf;" vertex="1" parent="1">
          <mxGeometry x="60" y="360" width="120" height="50" as="geometry" />
        </mxCell>
        <mxCell id="XzW9RZ9uWTQpwF6JlTbW-12" style="edgeStyle=orthogonalEdgeStyle;rounded=0;orthogonalLoop=1;jettySize=auto;html=1;exitX=0.5;exitY=1;exitDx=0;exitDy=0;" edge="1" parent="1" source="XzW9RZ9uWTQpwF6JlTbW-5" target="XzW9RZ9uWTQpwF6JlTbW-6">
          <mxGeometry relative="1" as="geometry" />
        </mxCell>
        <mxCell id="XzW9RZ9uWTQpwF6JlTbW-5" value="若存在桥接词，&lt;br&gt;输出该桥接词；&lt;br&gt;若不存在，&lt;br&gt;输出提示信息" style="rounded=0;whiteSpace=wrap;html=1;fillColor=#dae8fc;strokeColor=#6c8ebf;" vertex="1" parent="1">
          <mxGeometry x="60" y="440" width="120" height="60" as="geometry" />
        </mxCell>
        <mxCell id="XzW9RZ9uWTQpwF6JlTbW-6" value="算法结束" style="rounded=1;whiteSpace=wrap;html=1;fillColor=#ffe6cc;strokeColor=#d79b00;" vertex="1" parent="1">
          <mxGeometry x="80" y="530" width="80" height="40" as="geometry" />
        </mxCell>
        <mxCell id="XzW9RZ9uWTQpwF6JlTbW-13" value="输出提示信息" style="rounded=0;whiteSpace=wrap;html=1;fillColor=#dae8fc;strokeColor=#6c8ebf;" vertex="1" parent="1">
          <mxGeometry x="240" y="260" width="120" height="60" as="geometry" />
        </mxCell>
        <mxCell id="XzW9RZ9uWTQpwF6JlTbW-15" value="否" style="text;html=1;align=center;verticalAlign=middle;resizable=0;points=[];autosize=1;strokeColor=none;fillColor=none;" vertex="1" parent="1">
          <mxGeometry x="230" y="170" width="40" height="30" as="geometry" />
        </mxCell>
      </root>
    </mxGraphModel>
  </diagram>
</mxfile>
